<svg xmlns="http://www.w3.org/2000/svg" viewBox="0 0 1600 1000" role="img" aria-label="Premium jungle resort room interior near Panna Madla gate with a bed, warm lamps and a jungle-view window">
  <defs>
    <linearGradient id="roomWall" x1="0" y1="0" x2="0" y2="1">
      <stop offset="0" stop-color="#EDE2CE"/>
      <stop offset="1" stop-color="#DCCBA4"/>
    </linearGradient>
    <linearGradient id="roomFloor" x1="0" y1="0" x2="0" y2="1">
      <stop offset="0" stop-color="#A9845A"/>
      <stop offset="1" stop-color="#7A5C3A"/>
    </linearGradient>
    <linearGradient id="viewSky" x1="0" y1="0" x2="0" y2="1">
      <stop offset="0" stop-color="#BFD9E8"/>
      <stop offset="1" stop-color="#F2E6CE"/>
    </linearGradient>
  </defs>

  <rect width="1600" height="1000" fill="url(#roomWall)"/>

  <rect x="0" y="640" width="1600" height="360" fill="url(#roomFloor)"/>
  <path d="M0 640 Q400 620 800 645 T1600 640" fill="none" stroke="#F3E3C2" stroke-width="8" opacity="0.5"/>

  <rect x="200" y="150" width="1200" height="480" rx="14" fill="#2F6F3E"/>
  <rect x="216" y="166" width="1168" height="448" rx="10" fill="url(#viewSky)"/>
  <g fill="#4E8F5B">
    <circle cx="420" cy="360" r="46"/><circle cx="474" cy="420" r="34"/><circle cx="380" cy="430" r="38"/>
    <circle cx="1120" cy="350" r="42"/><circle cx="1060" cy="410" r="32"/><circle cx="1180" cy="420" r="36"/>
  </g>
  <path d="M216 500 q300 -70 600 -10 t568 60 l0 -56 z" fill="#7A9A6A" opacity="0.8"/>
  <path d="M0 540 Q200 470 400 520 T800 520 T1200 530 T1600 505 L1600 614 L0 614 Z" fill="#6F9A62" opacity="0.9"/>
  <g fill="#FFFFFF" opacity="0.5">
    <circle cx="760" cy="240" r="26"/><circle cx="840" cy="210" r="16"/>
  </g>

  <g fill="#172018" opacity="0.18">
    <rect x="216" y="166" width="1168" height="448" rx="10"/>
  </g>

  <rect x="0" y="640" width="1600" height="30" fill="#4E3A20"/>

  <rect x="450" y="440" width="700" height="210" rx="14" fill="#A9845A"/>
  <rect x="470" y="460" width="660" height="170" rx="10" fill="#F3E9D4"/>
  <rect x="470" y="460" width="660" height="170" fill="none" stroke="#C9A96E" stroke-width="8"/>
  <rect x="470" y="460" width="150" height="170" rx="10" fill="#E8D7B0"/>
  <g fill="#DCCBA4">
    <rect x="560" y="520" width="120" height="90" rx="8"/>
    <rect x="720" y="520" width="120" height="90" rx="8"/>
    <rect x="880" y="520" width="120" height="90" rx="8"/>
  </g>
  <rect x="470" y="560" width="660" height="20" fill="#C9A96E"/>

  <rect x="680" y="610" width="240" height="40" rx="6" fill="#2F6F3E"/>
  <rect x="680" y="610" width="240" height="40" rx="6" fill="none" stroke="#1F5A32" stroke-width="4"/>
  <path d="M800 618 l-20 14 l40 0 Z" fill="#E8D7B0"/>

  <rect x="740" y="300" width="120" height="150" rx="10" fill="#7A5C3A"/>
  <rect x="700" y="250" width="200" height="70" rx="8" fill="#C9A96E"/>
  <path d="M700 250 l100 -70 l100 70 Z" fill="#B8935C"/>
  <rect x="700" y="250" width="200" height="70" rx="8" fill="none" stroke="#8A6A3A" stroke-width="6"/>
  <rect x="740" y="300" width="120" height="150" rx="10" fill="none" stroke="#8A6A3A" stroke-width="6"/>

  <g>
    <rect x="560" y="410" width="52" height="130" rx="8" fill="#8A6A3A"/>
    <path d="M540 410 q26 -28 52 0 l-14 24 q-12 -10 -24 0 Z" fill="#C69214"/>
    <circle cx="586" cy="382" r="10" fill="#F3B05C"/>
    <rect x="920" y="410" width="52" height="130" rx="8" fill="#8A6A3A"/>
    <path d="M900 410 q26 -28 52 0 l-14 24 q-12 -10 -24 0 Z" fill="#C69214"/>
    <circle cx="926" cy="382" r="10" fill="#F3B05C"/>
  </g>

  <g fill="#1F5A32">
    <rect x="200" y="700" width="170" height="56" rx="12"/>
    <path d="M200 700 l34 -34 l102 34 Z" fill="#2F6F3E"/>
    <path d="M240 656 l34 -34 l96 34 Z" fill="#4E8F5B"/>
  </g>
  <g fill="#4E8F5B">
    <rect x="1230" y="700" width="170" height="56" rx="12"/>
    <path d="M1400 700 l-34 -34 l-102 34 Z" fill="#2F6F3E"/>
    <path d="M1360 656 l-34 -34 l-96 34 Z" fill="#1F5A32"/>
  </g>
  <g fill="#3E2A12">
    <circle cx="260" cy="730" r="26"/><circle cx="320" cy="740" r="30"/>
    <circle cx="1360" cy="730" r="26"/><circle cx="1300" cy="740" r="30"/>
  </g>

  <rect x="1100" y="780" width="60" height="40" rx="8" fill="#C9A96E"/>
  <rect x="440" y="780" width="60" height="40" rx="8" fill="#C9A96E"/>
</svg>